<?xml version="1.0" standalone="no"?>
<!DOCTYPE svg PUBLIC "-//W3C//DTD SVG 20010904//EN"
 "http://www.w3.org/TR/2001/REC-SVG-20010904/DTD/svg10.dtd">
<svg version="1.0" xmlns="http://www.w3.org/2000/svg"
 width="457.000000pt" height="546.000000pt" viewBox="0 0 457.000000 546.000000"
 preserveAspectRatio="xMidYMid meet">

<g transform="translate(0.000000,546.000000) scale(0.100000,-0.100000)"
fill="#000000" stroke="none">
<path d="M1905 4149 c-22 -5 -87 -32 -145 -58 -58 -27 -121 -52 -140 -56 -55
-11 -168 -75 -191 -107 -12 -16 -40 -41 -63 -55 -51 -32 -56 -39 -56 -85 0
-29 -8 -46 -37 -76 -42 -43 -106 -140 -123 -186 -8 -21 -7 -38 1 -64 8 -23 9
-61 4 -111 -4 -42 -7 -83 -6 -91 0 -8 5 -125 10 -260 5 -135 12 -276 16 -315
l7 -70 44 3 c24 2 48 10 55 18 6 8 21 14 33 14 27 0 122 -96 102 -103 -8 -3
-16 -28 -19 -59 -5 -52 14 -270 33 -377 6 -30 10 -58 10 -63 0 -4 -19 -17 -42
-29 -30 -16 -52 -20 -82 -16 -32 4 -37 3 -22 -5 10 -6 35 -8 56 -5 35 4 42 1
89 -47 28 -28 51 -55 51 -60 0 -9 -72 -3 -105 9 -16 6 -15 4 4 -10 21 -16 38
-17 153 -11 161 8 176 2 206 -81 38 -104 52 -176 63 -328 25 -333 -6 -411
-170 -423 -61 -4 -69 -2 -97 21 -38 32 -51 87 -60 247 -11 194 -22 166 -21
-51 2 -194 1 -208 -18 -229 -31 -34 -70 -50 -139 -57 -78 -7 -101 4 -129 65
-19 41 -22 44 -25 22 -8 -72 -22 -84 -110 -96 -74 -10 -115 12 -137 72 -9 27
-21 58 -25 69 -8 19 -9 19 -9 -2 -1 -18 -9 -23 -45 -28 -58 -9 -96 9 -112 55
-7 19 -13 27 -13 17 -1 -26 25 -73 51 -91 14 -10 44 -16 80 -16 55 0 58 -1 73
-34 9 -18 27 -39 41 -47 35 -18 121 -16 181 6 48 17 49 17 88 -4 22 -11 48
-21 58 -21 18 0 21 -5 31 -51 9 -43 45 -52 143 -33 48 9 147 16 224 17 158 2
167 6 231 97 81 115 100 243 58 385 -25 84 -40 174 -29 181 4 2 57 -15 117
-40 256 -103 396 -131 632 -123 224 7 306 32 381 113 39 42 199 295 250 394
l44 85 -2 125 c-1 69 -6 139 -11 155 -9 25 -10 21 -6 -25 7 -71 -6 -134 -29
-138 -10 -2 -39 10 -66 27 -54 35 -91 38 -165 16 -27 -8 -53 -15 -58 -15 -5 0
-7 25 -3 58 6 56 6 56 -10 29 -27 -48 -95 -60 -175 -32 -23 8 -46 15 -51 15
-15 0 -10 -44 7 -68 l15 -22 -60 0 c-33 0 -111 7 -173 16 -136 19 -191 15
-255 -18 -26 -14 -76 -33 -110 -43 -55 -15 -71 -16 -125 -5 -88 17 -156 44
-229 91 -147 96 -233 198 -299 357 -31 76 -36 82 -63 82 -22 0 -27 3 -19 13 5
6 30 50 54 97 25 47 67 119 93 160 75 117 96 172 116 309 34 225 95 297 309
361 125 38 248 37 550 0 41 -5 156 -13 254 -16 l179 -7 34 -30 c19 -17 48 -53
64 -81 17 -28 27 -40 23 -26 -4 14 -7 34 -6 45 16 146 -30 232 -220 404 -128
117 -196 163 -295 202 -43 17 -106 44 -141 60 -84 39 -163 59 -237 59 -33 0
-93 9 -134 20 -79 21 -141 24 -206 9z m1030 -2115 c50 2 99 8 110 12 11 4 17
4 13 -1 -4 -4 -63 -22 -132 -40 -138 -37 -176 -38 -317 -11 -79 15 -149 41
-149 55 0 4 87 0 193 -7 105 -7 233 -11 282 -8z m249 -16 c7 -11 4 -36 -9 -83
-14 -55 -27 -77 -72 -126 -56 -60 -85 -72 -102 -42 -7 14 2 30 48 79 42 44 61
74 71 110 23 86 39 101 64 62z m-680 -23 c83 -34 272 -74 354 -76 21 0 45 -4
56 -8 17 -7 16 -10 -14 -44 -17 -20 -38 -37 -45 -37 -7 0 -18 -6 -24 -14 -14
-16 12 -26 73 -26 74 0 23 -18 -61 -22 -70 -3 -85 -7 -107 -27 -39 -37 -104
-35 -188 7 -79 39 -127 91 -150 161 -14 46 -15 67 -2 109 5 17 10 16 108 -23z
m-597 -593 c81 -110 59 -312 -47 -423 l-37 -39 -89 0 c-109 0 -205 -14 -295
-41 -86 -26 -123 -23 -127 11 -2 23 3 27 60 44 41 13 77 33 104 58 38 35 41
36 58 20 13 -13 35 -17 104 -17 100 0 135 13 169 64 21 32 23 44 23 187 0 133
2 154 17 162 22 13 36 7 60 -26z"/>
<path d="M3151 3319 c-1 -4 6 -25 14 -49 27 -75 73 -409 60 -430 -3 -6 -30
-10 -59 -10 -63 0 -148 -15 -184 -33 -15 -6 -33 -25 -40 -40 -7 -15 -19 -27
-26 -27 -7 0 -26 -10 -41 -22 -27 -21 -27 -24 -23 -102 5 -88 24 -138 54 -142
11 -1 37 -9 59 -17 29 -11 41 -12 43 -4 3 12 74 67 86 67 3 0 6 -8 6 -17 1
-14 4 -12 15 7 32 56 7 167 -46 199 -18 10 -19 15 -8 22 52 33 135 -17 165
-99 10 -26 23 -54 29 -62 7 -8 15 -44 18 -80 3 -36 13 -83 22 -105 8 -22 13
-29 11 -15 -12 67 -25 197 -31 310 -8 181 -32 360 -61 475 -22 86 -61 193 -63
174z m-191 -689 c0 -28 -27 -45 -45 -30 -19 16 -19 29 2 52 18 21 43 8 43 -22z"/>
<path d="M2235 2825 c-166 -16 -197 -22 -193 -42 4 -20 23 -30 73 -39 l40 -7
-43 -14 c-23 -8 -41 -20 -40 -26 1 -7 -6 -27 -16 -45 -23 -45 -14 -51 14 -10
12 18 19 24 15 13 -4 -11 -12 -39 -18 -63 -10 -42 -9 -45 21 -73 35 -32 106
-68 136 -69 10 0 35 14 56 30 43 34 60 38 61 13 1 -25 38 57 39 84 0 39 -31
102 -64 128 l-31 25 63 0 c59 0 64 -2 97 -37 38 -40 75 -108 75 -136 0 -9 4
-17 9 -17 16 0 23 40 16 86 l-6 44 64 0 c73 0 100 17 76 46 -8 9 -12 28 -11
41 5 33 -20 49 -93 62 -102 17 -205 19 -340 6z m-49 -177 c8 -27 -17 -52 -45
-43 -26 8 -29 50 -4 63 22 13 41 5 49 -20z"/>
<path d="M1172 2498 c2 -6 13 -16 24 -22 10 -6 41 -24 67 -40 51 -30 65 -30
48 2 -20 38 -71 72 -108 72 -22 0 -33 -4 -31 -12z"/>
<path d="M1083 2410 c0 -36 2 -50 4 -32 2 17 2 47 0 65 -2 17 -4 3 -4 -33z"/>
<path d="M1091 2314 c0 -11 3 -14 6 -6 3 7 2 16 -1 19 -3 4 -6 -2 -5 -13z"/>
<path d="M1111 2245 c0 -5 6 -21 14 -35 8 -14 14 -20 14 -15 0 6 -6 21 -14 35
-8 14 -14 21 -14 15z"/>
<path d="M1176 2110 c17 -33 49 -71 73 -86 22 -14 21 -12 -6 17 -18 19 -42 45
-54 59 -11 14 -17 18 -13 10z"/>
<path d="M1068 1793 c6 -2 18 -2 25 0 6 3 1 5 -13 5 -14 0 -19 -2 -12 -5z"/>
<path d="M870 1670 c-9 -6 -10 -10 -3 -10 6 0 15 5 18 10 8 12 4 12 -15 0z"/>
<path d="M702 1510 c0 -14 2 -19 5 -12 2 6 2 18 0 25 -3 6 -5 1 -5 -13z"/>
<path d="M1105 1490 c3 -5 8 -10 11 -10 2 0 4 5 4 10 0 6 -5 10 -11 10 -5 0
-7 -4 -4 -10z"/>
<path d="M693 1425 c0 -27 2 -38 4 -22 2 15 2 37 0 50 -2 12 -4 0 -4 -28z"/>
<path d="M683 1290 c0 -25 2 -35 4 -22 2 12 2 32 0 45 -2 12 -4 2 -4 -23z"/>
<path d="M692 1200 c0 -19 2 -27 5 -17 2 9 2 25 0 35 -3 9 -5 1 -5 -18z"/>
<path d="M1132 1205 c0 -16 2 -22 5 -12 2 9 2 23 0 30 -3 6 -5 -1 -5 -18z"/>
<path d="M1142 1145 c0 -16 2 -22 5 -12 2 9 2 23 0 30 -3 6 -5 -1 -5 -18z"/>
</g>
</svg>
